<svg id="圖層_1" data-name="圖層 1" xmlns="http://www.w3.org/2000/svg" viewBox="0 0 42 26"><defs><style>.cls-1{fill:#5a31f4;stroke:#666;stroke-miterlimit:10;stroke-width:0.5px;}.cls-2{fill:#fff;}</style></defs><rect class="cls-1" x="1" y="1" width="40" height="24" rx="2"/><path class="cls-2" d="M9.47,7.31a5.38,5.38,0,0,0-3.42,1.1H6A.19.19,0,0,0,6,8.53a.15.15,0,0,0,0,.13l.71,1.22a.1.1,0,0,0,0,.06.11.11,0,0,0,.07,0h.08l.07,0,.06,0a3.78,3.78,0,0,1,2.39-.84,2.5,2.5,0,0,1,2,.62,3.07,3.07,0,0,1,.9,2.23,2.42,2.42,0,0,1-2.49,2.66c-1.26,0-2.11-.67-2.11-1.64a1.38,1.38,0,0,1,.69-1.19.18.18,0,0,0,.07-.1.2.2,0,0,0,0-.13l-.64-1.2a.21.21,0,0,0,0-.06l-.07,0H7.63a.09.09,0,0,0-.07,0A2.86,2.86,0,0,0,6,12.92,3.63,3.63,0,0,0,9.7,16.34H10A4.22,4.22,0,0,0,14.15,12,4.59,4.59,0,0,0,9.47,7.31Z"/><path class="cls-2" d="M36.05,10.42l0-.06-.05,0-.07,0H34.71l-.09,0a.18.18,0,0,0,0,.07l-1.41,4.32a.11.11,0,0,1-.06.07.11.11,0,0,1-.08,0,.16.16,0,0,1-.09,0,.13.13,0,0,1,0-.07l-1.62-4.33a.2.2,0,0,0-.06-.07.11.11,0,0,0-.08,0H30l-.06,0-.05,0a.07.07,0,0,0,0,.06.17.17,0,0,0,0,.07l2.39,6.14a.17.17,0,0,1,0,.1l-.08.24a1.33,1.33,0,0,1-.52.73,1.35,1.35,0,0,1-.87.25,2.38,2.38,0,0,1-.53-.05h-.06l-.06,0a.21.21,0,0,0,0,.06s0,0,0,.06v1a.17.17,0,0,0,0,.1.16.16,0,0,0,.08.05,2.15,2.15,0,0,0,.62.07,2.64,2.64,0,0,0,2.71-2L36,10.49h0A.17.17,0,0,0,36.05,10.42Z"/><path class="cls-2" d="M26.31,10.13c-1.78,0-2.61.76-2.79,1.77a.13.13,0,0,0,0,.06.09.09,0,0,0,0,.06l.05,0h1.2a.11.11,0,0,0,.08,0A.13.13,0,0,0,25,12c.11-.43.57-.69,1.3-.69s1.2.29,1.2,1v.34l-1.16,0a4,4,0,0,0-2.29.58,1.82,1.82,0,0,0-.55.65,1.7,1.7,0,0,0-.17.83c0,1.18.86,1.86,2.18,1.86a2.34,2.34,0,0,0,1.79-.64.07.07,0,0,1,.05,0h.07l.05.05s0,0,0,.06v.27a.07.07,0,0,0,0,.05l0,.05s0,0,.05,0h1.26s0,0,.05,0l0-.05a.07.07,0,0,0,0-.05V12.68C28.87,11,28.19,10.13,26.31,10.13Zm1.14,3.79a1.41,1.41,0,0,1-1.58,1.5c-.74,0-1.16-.28-1.16-.78s.46-.88,1.25-.91l1.49-.08Z"/><path class="cls-2" d="M19.77,7.22H16.53a.14.14,0,0,0-.1,0,.12.12,0,0,0,0,.1v8.88a.14.14,0,0,0,.14.14h1.22a.12.12,0,0,0,.1,0,.14.14,0,0,0,0-.1V13.79a.15.15,0,0,1,0-.11.18.18,0,0,1,.1,0h1.74a3.06,3.06,0,0,0,3.14-3.22A3.07,3.07,0,0,0,19.77,7.22Zm-.08,5.07H18.05a.14.14,0,0,1-.14-.14V8.71a.14.14,0,0,1,0-.1.13.13,0,0,1,.1,0h1.64a1.75,1.75,0,0,1,1.73,1.86A1.75,1.75,0,0,1,19.69,12.29Z"/></svg>